HIERARCHY
ROOT SpineBase
{
  OFFSET 0.000000 0.000000 0.000000
  CHANNELS 6 Xposition Yposition Zposition Zrotation Xrotation Yrotation
  JOINT SpineMid
  {
    OFFSET 0.000000 27.591777 0.000000
    CHANNELS 3 Zrotation Xrotation Yrotation
    JOINT SpineShoulder
    {
      OFFSET 0.049247 20.459716 -0.740103
      CHANNELS 3 Zrotation Xrotation Yrotation
      JOINT Neck
      {
        OFFSET 0.042721 6.752953 -0.539272
        CHANNELS 3 Zrotation Xrotation Yrotation
        JOINT Head
        {
          OFFSET 4.332049 12.128685 1.895108
          CHANNELS 3 Zrotation Xrotation Yrotation
          End Site
          {
            OFFSET 0 0 0
          }
        }
      }
      JOINT ShoulderLeft
      {
        OFFSET -10.257251 -5.712401 -11.750175
        CHANNELS 3 Zrotation Xrotation Yrotation
        JOINT ElbowLeft
        {
          OFFSET -5.891091 -23.586412 -7.466207
          CHANNELS 3 Zrotation Xrotation Yrotation
          JOINT WristLeft
          {
            OFFSET 19.517232 -12.374539 -15.158324
            CHANNELS 3 Zrotation Xrotation Yrotation
            JOINT HandLeft
            {
              OFFSET 2.032828 -3.733884 -0.756537
              CHANNELS 3 Zrotation Xrotation Yrotation
              JOINT HandTipLeft
              {
                OFFSET 3.933561 -5.703172 -1.538661
                CHANNELS 3 Zrotation Xrotation Yrotation
                End Site
                {
                  OFFSET 0 0 0
                }
              }
              JOINT ThumbLeft
              {
                OFFSET -1.732827 -3.964104 -0.371403
                CHANNELS 3 Zrotation Xrotation Yrotation
                End Site
                {
                  OFFSET 0 0 0
                }
              }
            }
          }
        }
      }
      JOINT ShoulderRight
      {
        OFFSET 11.359493 -4.008691 16.649066
        CHANNELS 3 Zrotation Xrotation Yrotation
        JOINT ElbowRight
        {
          OFFSET 5.734601 -21.339723 8.418505
          CHANNELS 3 Zrotation Xrotation Yrotation
          JOINT WristRight
          {
            OFFSET 19.541104 -6.299039 -6.218553
            CHANNELS 3 Zrotation Xrotation Yrotation
            JOINT HandRight
            {
              OFFSET 0.692085 -2.684720 -1.380276
              CHANNELS 3 Zrotation Xrotation Yrotation
              JOINT HandTipRight
              {
                OFFSET 1.804652 -2.384157 -4.834642
                CHANNELS 3 Zrotation Xrotation Yrotation
                End Site
                {
                  OFFSET 0 0 0
                }
              }
              JOINT ThumbRight
              {
                OFFSET 0.410008 0.918572 -0.218338
                CHANNELS 3 Zrotation Xrotation Yrotation
                End Site
                {
                  OFFSET 0 0 0
                }
              }
            }
          }
        }
      }
    }
  }
  JOINT HipLeft
  {
    OFFSET -3.999345 0.788027 -8.607999
    CHANNELS 3 Zrotation Xrotation Yrotation
    JOINT KneeLeft
    {
      OFFSET 9.851237 1.795439 -33.114498
      CHANNELS 3 Zrotation Xrotation Yrotation
      JOINT AnkleLeft
      {
        OFFSET 19.991727 -37.320841 3.551843
        CHANNELS 3 Zrotation Xrotation Yrotation
        JOINT FootLeft
        {
          OFFSET 2.088293 -8.704684 4.555105
          CHANNELS 3 Zrotation Xrotation Yrotation
          End Site
          {
            OFFSET 0 0 0
          }
        }
      }
    }
  }
  JOINT HipRight
  {
    OFFSET 5.010684 -0.449305 1.768670
    CHANNELS 3 Zrotation Xrotation Yrotation
    JOINT KneeRight
    {
      OFFSET 37.994529 1.352778 -1.023123
      CHANNELS 3 Zrotation Xrotation Yrotation
      JOINT AnkleRight
      {
        OFFSET -3.272934 -38.343129 5.771023
        CHANNELS 3 Zrotation Xrotation Yrotation
        JOINT FootRight
        {
          OFFSET -4.547552 -2.334426 -14.952770
          CHANNELS 3 Zrotation Xrotation Yrotation
          End Site
          {
            OFFSET 0 0 0
          }
        }
      }
    }
  }
}
MOTION
Frames: 15
Frame Time: 0.033333
-58.321975 45.976777 405.139317 3.580448 -3.456837 -44.571263 0.053430 0.709821 44.804171 0.085490 -0.176643 0.203199 -2.659863 0.870469 0.298858 0.000000 0.000000 0.000000 4.122585 4.113835 -3.687492 -7.023891 -6.118857 -6.117786 59.118238 12.673052 -9.802727 -35.556930 -8.486999 0.927801 0.000000 0.000000 0.000000 0.000000 0.000000 0.000000 -0.390320 -0.801240 0.109971 -2.941902 -0.100190 -13.981666 -36.041372 -30.261987 22.799484 48.829819 13.667697 -26.309308 0.000000 0.000000 0.000000 0.000000 0.000000 0.000000 -8.776417 7.515427 34.242642 -7.844269 -15.191321 5.389411 22.342962 58.118332 20.472023 0.000000 0.000000 0.000000 -3.669595 1.505905 36.970209 -3.097747 3.866655 7.254646 0.857297 -5.533921 0.861165 0.000000 0.000000 0.000000
-58.602940 46.103495 405.232150 3.084596 -3.707864 -44.514112 0.132799 1.007947 44.717886 -0.139312 -0.263443 0.184227 -2.427613 0.882128 0.427436 0.000000 0.000000 0.000000 4.462952 3.979159 -3.540736 -6.318524 -5.629985 -6.669457 52.425613 13.975327 -7.183325 -33.035882 -9.079820 0.219382 0.000000 0.000000 0.000000 0.000000 0.000000 0.000000 -0.324439 1.295405 0.434262 -2.607006 -1.367557 -12.313167 -20.731667 -18.552661 17.347892 25.780174 -3.288429 -38.777187 0.000000 0.000000 0.000000 0.000000 0.000000 0.000000 -6.671872 3.350578 31.263219 -6.610539 -11.594541 8.149180 21.031074 56.011010 20.096589 0.000000 0.000000 0.000000 -3.384105 2.124704 37.317208 -2.918755 3.909788 6.884326 0.562181 -5.581031 0.917246 0.000000 0.000000 0.000000
-58.755403 46.234636 405.419641 2.753944 -4.114495 -45.394213 0.025493 1.219756 45.580320 -0.345859 -0.342788 0.165649 -2.267097 1.031626 0.552559 0.000000 0.000000 0.000000 4.596341 3.822959 -3.289099 -5.304498 -4.811813 -7.125221 38.734867 12.167446 -2.164950 -24.111903 -7.844048 -0.230215 0.000000 0.000000 0.000000 0.000000 0.000000 0.000000 -0.203749 3.889360 0.891159 -5.184217 -0.812360 -1.272543 -0.815734 -9.727104 -1.537779 -7.027687 -30.565627 -60.800377 0.000000 0.000000 0.000000 0.000000 0.000000 0.000000 -4.451326 -1.980775 31.811017 -4.206312 -7.254559 8.101331 21.066399 57.066927 20.186461 0.000000 0.000000 0.000000 -3.932624 2.141047 38.855959 -2.233170 3.950696 6.258408 0.428230 -5.102190 0.918370 0.000000 0.000000 0.000000
-58.807739 46.310728 405.666332 2.566753 -4.528151 -46.420123 -0.114130 1.258711 46.600075 -0.554202 -0.403117 0.147634 -1.954133 1.516893 0.555839 0.000000 0.000000 0.000000 4.799551 3.921498 -3.129424 -4.442610 -4.107352 -7.310736 24.184484 6.434278 1.859578 -13.888316 -6.274204 -1.132688 0.000000 0.000000 0.000000 0.000000 0.000000 0.000000 0.146513 5.348794 1.136729 -8.779012 -0.668943 6.750935 16.479990 -5.041205 -13.997994 -7.286800 -18.062828 -20.350408 0.000000 0.000000 0.000000 0.000000 0.000000 0.000000 -2.749437 -6.719213 30.388207 -3.964212 -3.826174 10.077173 25.992458 60.757754 20.255523 0.000000 0.000000 0.000000 -3.472461 3.140944 40.490673 -2.799708 3.931460 5.666918 0.206242 -5.414506 0.867507 0.000000 0.000000 0.000000
-58.791913 46.226180 405.797138 2.446097 -4.760055 -47.159922 -0.228416 1.146239 47.337458 -0.702113 -0.454748 0.131023 -1.851207 1.735292 0.664185 0.000000 0.000000 0.000000 5.140293 4.119364 -3.085957 -4.212425 -4.129442 -7.722229 15.897552 4.632234 4.203376 -8.479548 -6.192409 -2.389508 0.000000 0.000000 0.000000 0.000000 0.000000 0.000000 0.675199 3.962493 0.773235 -11.328450 0.986127 11.271074 26.379970 2.453786 -18.344345 -8.902807 -23.535785 -20.783283 0.000000 0.000000 0.000000 0.000000 0.000000 0.000000 -1.958270 -10.093544 26.952263 -5.610898 -2.255735 13.989460 34.829887 67.100797 19.527067 0.000000 0.000000 0.000000 -3.145872 3.803277 41.668950 -3.410602 3.839044 5.207866 0.309918 -5.673815 0.900869 0.000000 0.000000 0.000000
-58.611468 46.021474 405.703051 2.517246 -4.791992 -47.868610 -0.344257 0.849976 48.056499 -0.697425 -0.506618 0.123870 -1.972027 1.695130 0.832083 0.000000 0.000000 0.000000 5.143481 4.159635 -2.965835 -3.717931 -3.534805 -7.509064 11.534058 2.123472 4.628669 -7.439305 -6.968260 -3.233754 0.000000 0.000000 0.000000 0.000000 0.000000 0.000000 1.117929 0.195303 -0.091610 -13.253221 4.285739 14.281022 31.941819 9.001666 -19.718506 -9.922304 -28.165211 -20.221372 0.000000 0.000000 0.000000 0.000000 0.000000 0.000000 -2.116421 -11.965269 22.586395 -8.766419 -2.968420 18.951678 48.899413 73.985670 15.536287 0.000000 0.000000 0.000000 -3.019567 3.990617 42.497204 -4.024998 3.710954 5.047464 0.647663 -5.745661 0.912107 0.000000 0.000000 0.000000
-58.506912 45.787935 405.452210 2.455209 -4.675850 -48.469574 -0.380108 0.585001 48.654727 -0.733558 -0.454861 0.108045 -2.099417 1.458279 1.014664 0.000000 0.000000 0.000000 5.268064 4.108000 -2.864660 -3.931130 -3.777550 -7.610522 10.602897 0.678649 4.301775 -6.709529 -7.992398 -4.176754 0.000000 0.000000 0.000000 0.000000 0.000000 0.000000 1.153814 -2.191226 -0.728376 -13.242047 6.307705 15.165202 32.064897 13.145809 -18.834167 -10.491853 -34.084825 -23.037451 0.000000 0.000000 0.000000 0.000000 0.000000 0.000000 -2.860646 -11.837532 17.825494 -12.685617 -6.034823 24.053383 70.424738 78.195807 5.267018 0.000000 0.000000 0.000000 -2.895834 3.969967 42.879245 -4.623196 3.491831 5.200360 1.246176 -5.655194 0.820226 0.000000 0.000000 0.000000
-58.627677 45.636259 404.870206 1.943986 -4.067272 -49.295184 -0.006210 0.312373 49.440305 -0.734428 -0.399521 0.083457 -1.684895 0.831492 1.193094 0.000000 0.000000 0.000000 5.235754 3.876263 -2.614428 -3.571401 -3.795723 -7.786084 11.243515 1.062815 4.228537 -7.269472 -9.232005 -4.780324 0.000000 0.000000 0.000000 0.000000 0.000000 0.000000 1.018842 -3.474889 -1.177826 -9.658399 7.709691 11.538909 20.329940 19.135551 -10.585087 -4.779616 -30.260096 -18.807198 0.000000 0.000000 0.000000 0.000000 0.000000 0.000000 -3.469156 -9.534417 13.032687 -16.335812 -11.125053 28.984308 70.316244 76.082402 10.019339 0.000000 0.000000 0.000000 -2.134877 3.946185 43.184789 -4.966427 3.290400 5.650871 1.521161 -5.433719 0.816435 0.000000 0.000000 0.000000
-58.808044 45.531388 404.325870 1.353360 -3.582237 -49.652858 0.304033 0.097165 49.756121 -0.742646 -0.382583 0.055757 -0.950896 0.125680 1.390205 0.000000 0.000000 0.000000 5.041526 3.786065 -2.288172 -2.350293 -3.538313 -8.166427 13.184201 2.259423 4.266388 -8.084677 -11.485829 -5.770612 0.000000 0.000000 0.000000 0.000000 0.000000 0.000000 0.736862 -3.241471 -1.383316 -5.769490 7.835244 8.367918 6.310899 18.599025 -2.140881 2.589526 -23.280684 -15.006398 0.000000 0.000000 0.000000 0.000000 0.000000 0.000000 -3.782565 -7.283189 8.989181 -19.230588 -15.306305 32.851584 66.722552 72.560198 15.913800 0.000000 0.000000 0.000000 -1.567058 3.895181 42.972383 -4.956601 3.129590 6.178306 1.700822 -5.265373 0.925814 0.000000 0.000000 0.000000
-58.856954 45.448896 403.831349 0.946678 -3.285337 -49.796481 0.250460 -0.061567 49.869168 -0.691961 -0.116067 0.027083 -0.017131 0.304582 1.088209 0.000000 0.000000 0.000000 5.295807 2.984910 -2.025090 -1.676635 -3.069894 -8.574009 13.198790 -0.202688 3.665693 -11.185227 -11.152234 -4.975210 0.000000 0.000000 0.000000 0.000000 0.000000 0.000000 0.155024 -2.061010 -1.344998 -1.808233 5.403298 1.818745 -9.314836 13.206642 9.280133 12.028911 -16.614769 -15.271981 0.000000 0.000000 0.000000 0.000000 0.000000 0.000000 -3.913711 -6.105840 5.676812 -21.601438 -18.845044 35.489356 68.944605 71.200435 17.541195 0.000000 0.000000 0.000000 -1.348319 3.729312 42.510123 -4.634935 3.074782 6.779503 1.661804 -5.131518 1.182807 0.000000 0.000000 0.000000
-58.925723 45.418948 403.424531 0.466237 -2.770610 -49.263780 0.162717 -0.236191 49.299817 -0.675426 0.002128 -0.006865 0.846626 -0.083272 1.017190 0.000000 0.000000 0.000000 5.339095 2.495463 -1.732635 -2.125136 -3.596036 -8.345709 14.756859 3.073692 3.835906 -16.727654 -10.937941 -3.636218 0.000000 0.000000 0.000000 0.000000 0.000000 0.000000 0.009532 -2.461160 -1.563035 -2.305982 5.127554 3.306681 -5.408394 6.146589 4.441390 10.528707 -10.632688 -15.043490 0.000000 0.000000 0.000000 0.000000 0.000000 0.000000 -3.619918 -5.436151 2.909296 -22.985787 -21.078709 37.165287 69.949275 70.507528 18.781750 0.000000 0.000000 0.000000 -0.995229 3.369342 41.278544 -4.112426 3.071450 7.479205 0.704465 -3.386039 3.505646 0.000000 0.000000 0.000000
-58.952884 45.458403 403.213569 -0.025426 -2.263397 -48.646994 -0.230114 0.145607 48.650022 -0.559598 0.281243 -0.030308 2.232478 0.151569 0.313243 0.000000 0.000000 0.000000 5.034652 1.960829 -1.582267 -2.862395 -5.324968 -8.394207 11.565017 0.936093 3.708363 -8.390778 -10.610651 -5.552959 0.000000 0.000000 0.000000 0.000000 0.000000 0.000000 -0.435347 -2.627458 -1.546072 -4.142744 4.990534 10.438086 9.028817 -1.514413 -10.248362 0.257635 -12.036020 -17.604848 0.000000 0.000000 0.000000 0.000000 0.000000 0.000000 -3.033715 -5.334284 1.757585 -23.243845 -21.380342 37.692990 70.428814 69.878981 18.977657 0.000000 0.000000 0.000000 -0.807183 2.853150 40.134005 -3.169910 3.245207 8.038085 0.590626 -3.667094 3.269825 0.000000 0.000000 0.000000
-58.688743 45.718652 402.905917 -0.180363 -1.398203 -49.661572 -0.949099 1.042500 49.668006 -0.000000 0.000000 0.000000 3.357174 0.932682 -0.893376 0.000000 0.000000 0.000000 4.121210 1.577909 -1.764053 -6.602890 -8.207352 -6.231621 18.370434 -5.408762 -2.947633 -5.693288 -4.294039 -2.840948 0.000000 0.000000 0.000000 0.000000 0.000000 0.000000 -1.492964 -2.815708 -1.373939 -6.876674 3.801981 16.731003 19.690342 -5.142721 -19.588737 -5.608892 -12.184089 -15.255551 0.000000 0.000000 0.000000 0.000000 0.000000 0.000000 -1.787677 -7.110087 4.233245 -21.963613 -19.059938 36.869218 71.031555 69.627699 17.293296 0.000000 0.000000 0.000000 -0.920933 1.539820 40.651316 -2.018363 3.534638 8.551566 1.448102 -5.211490 0.457584 0.000000 0.000000 0.000000
-58.676448 45.881761 403.160163 -0.277263 -0.297592 -48.315220 -0.037855 0.404972 48.314634 -0.628619 1.220179 -0.051268 5.677639 1.199101 -1.606950 0.000000 0.000000 0.000000 5.038744 3.282140 -2.529562 -10.765085 -13.768634 -5.763837 25.155835 -1.268625 -4.933151 -4.314323 -4.742455 -3.451743 0.000000 0.000000 0.000000 0.000000 0.000000 0.000000 -0.886962 -3.679502 -1.253467 -9.292676 3.375088 21.361732 28.919241 -3.622760 -24.698798 -9.729068 -13.254127 -10.929617 0.000000 0.000000 0.000000 0.000000 0.000000 0.000000 -1.126038 -6.946261 3.482565 -22.305406 -19.343632 36.120000 71.334794 68.859339 17.351559 0.000000 0.000000 0.000000 0.653563 1.558779 39.343180 -2.531528 3.529667 8.538855 2.909897 -9.655443 -4.022604 0.000000 0.000000 0.000000
-58.863528 45.871850 403.678619 -0.287344 0.709505 -46.263464 -0.821665 0.607700 46.252129 -0.009426 0.926197 -0.028304 7.933494 5.852137 -4.418792 0.000000 0.000000 0.000000 5.200269 4.483227 -3.283039 -14.513191 -18.460963 -5.223649 29.982551 5.213791 -5.779934 -2.728361 -9.146401 -5.641175 0.000000 0.000000 0.000000 0.000000 0.000000 0.000000 -0.823607 -7.890491 -1.927599 -12.055160 5.149019 24.789495 36.770488 -0.160239 -26.954977 -11.791944 -20.625354 -13.656905 0.000000 0.000000 0.000000 0.000000 0.000000 0.000000 -0.557066 -7.593705 2.168884 -22.577401 -18.864524 35.532613 70.683502 69.392474 17.672394 0.000000 0.000000 0.000000 0.941755 0.380578 37.110390 -1.853929 4.006718 8.720758 5.146808 -17.333135 -9.990203 0.000000 0.000000 0.000000
